<?xml version="1.0" encoding="UTF-8"?><svg xmlns="http://www.w3.org/2000/svg" viewBox="0 0 223.02 119.39"><defs><style>.d{fill:#010101;}</style></defs><g id="a"/><g id="b"><g id="c"><g><path class="d" d="M73.47,73.81H41.17l2.9,2.9V31.53l-2.9,2.9h32.3l-2.9-2.9v45.18c0,3.73,5.8,3.74,5.8,0V31.53c0-1.57-1.33-2.9-2.9-2.9H41.17c-1.57,0-2.9,1.33-2.9,2.9v45.18c0,1.57,1.33,2.9,2.9,2.9h32.3c3.73,0,3.74-5.8,0-5.8Z"/><path class="d" d="M0,43.49V116.26c0,2.64,3.48,4.25,5.36,2.22l24.64-26.62-2.22,.92h53.98c2.76,0,6.76,.73,9.29-.65,5.58-3.05,10.93-6.65,16.36-9.95,2.42-1.47,4.86-2.9,7.25-4.41,1.42-.9,2.28-1.93,2.35-3.69,.41-11.62,0-23.34,0-34.96V3.14c0-2.37-2.67-3.92-4.72-2.71l-23.36,13.81c-.35,.21-1.01,.44-1.27,.75-.39,.45,2.16-.14,1.17-.35-.86-.18-1.96,.01-2.83,.02l-13.42,.08-34.65,.2c-3.2,.02-6.42-.07-9.61,.05-2.63,.1-4.01,2.18-5.73,3.95L.92,41.27c-2.81,2.9,1.62,7.35,4.44,4.44L29.95,20.35l-2.22,.92,37.94-.22,20.43-.12c1.51,0,3.17,.19,4.58-.45,1.93-.87,3.76-2.22,5.58-3.3l19.19-11.35-4.72-2.71V74.58l1.55-2.71-23.28,14.16c-.35,.21-1.05,.48-1.32,.8-.47,.57,2.1-.09,1.18-.33-.83-.22-2.01,0-2.86,0H37.75c-3.16,0-6.35-.12-9.51,0-2.69,.11-4.19,2.55-5.89,4.38L.92,114.04l5.36,2.22V43.49c0-4.04-6.28-4.05-6.28,0Z"/><rect class="d" x="42.17" y="33.39" width="31.29" height="43.32"/></g><g><path class="d" d="M138.23,7.84l-2.75-.5c.31-1.11,.84-1.92,1.59-2.46s1.87-.8,3.36-.8c1.35,0,2.36,.16,3.02,.48,.66,.32,1.13,.73,1.4,1.22,.27,.49,.4,1.39,.4,2.71l-.03,3.53c0,1.01,.05,1.75,.15,2.22,.1,.48,.28,.99,.54,1.53h-2.99c-.08-.2-.18-.5-.29-.89-.05-.18-.09-.3-.11-.36-.52,.5-1.07,.88-1.66,1.13-.59,.25-1.22,.38-1.88,.38-1.18,0-2.11-.32-2.78-.96-.68-.64-1.02-1.45-1.02-2.42,0-.65,.15-1.22,.46-1.73,.31-.51,.74-.89,1.3-1.16,.56-.27,1.36-.5,2.41-.71,1.42-.27,2.4-.51,2.94-.74v-.3c0-.58-.14-1-.43-1.24-.29-.25-.83-.37-1.63-.37-.54,0-.96,.11-1.26,.32-.3,.21-.55,.58-.73,1.12Zm4.05,2.46c-.39,.13-1,.28-1.84,.46-.84,.18-1.39,.36-1.65,.53-.39,.28-.59,.64-.59,1.07s.16,.79,.47,1.1c.32,.31,.72,.46,1.21,.46,.55,0,1.07-.18,1.56-.54,.37-.27,.61-.61,.72-1,.08-.26,.12-.75,.12-1.48v-.6Z"/><path class="d" d="M158.73,15.79h-2.81v-1.68c-.47,.65-1.02,1.14-1.65,1.46-.64,.32-1.28,.48-1.92,.48-1.31,0-2.44-.53-3.38-1.59-.94-1.06-1.41-2.54-1.41-4.43s.46-3.41,1.37-4.42c.91-1.01,2.06-1.51,3.46-1.51,1.28,0,2.38,.53,3.32,1.59V0h3.03V15.79Zm-8.08-5.97c0,1.22,.17,2.1,.51,2.65,.49,.79,1.17,1.19,2.05,1.19,.7,0,1.29-.3,1.78-.89,.49-.59,.73-1.48,.73-2.66,0-1.31-.24-2.26-.71-2.84s-1.08-.87-1.82-.87-1.32,.29-1.8,.86c-.48,.57-.73,1.42-.73,2.56Z"/><path class="d" d="M163.98,7.84l-2.75-.5c.31-1.11,.84-1.92,1.59-2.46s1.87-.8,3.36-.8c1.35,0,2.36,.16,3.02,.48,.66,.32,1.13,.73,1.4,1.22,.27,.49,.4,1.39,.4,2.71l-.03,3.53c0,1.01,.05,1.75,.15,2.22,.1,.48,.28,.99,.54,1.53h-2.99c-.08-.2-.18-.5-.29-.89-.05-.18-.09-.3-.11-.36-.52,.5-1.07,.88-1.66,1.13-.59,.25-1.22,.38-1.88,.38-1.18,0-2.11-.32-2.78-.96-.68-.64-1.02-1.45-1.02-2.42,0-.65,.15-1.22,.46-1.73,.31-.51,.74-.89,1.3-1.16,.56-.27,1.36-.5,2.41-.71,1.42-.27,2.4-.51,2.94-.74v-.3c0-.58-.14-1-.43-1.24-.29-.25-.83-.37-1.63-.37-.54,0-.96,.11-1.26,.32-.3,.21-.55,.58-.73,1.12Zm4.05,2.46c-.39,.13-1,.28-1.84,.46-.84,.18-1.39,.36-1.65,.53-.39,.28-.59,.64-.59,1.07s.16,.79,.47,1.1c.32,.31,.72,.46,1.21,.46,.55,0,1.07-.18,1.56-.54,.37-.27,.61-.61,.72-1,.08-.26,.12-.75,.12-1.48v-.6Z"/><path class="d" d="M173.9,4.35h2.82v1.68c.37-.57,.86-1.04,1.49-1.4,.62-.36,1.32-.54,2.08-.54,1.33,0,2.46,.52,3.38,1.56,.93,1.04,1.39,2.49,1.39,4.35s-.47,3.39-1.4,4.45c-.93,1.06-2.06,1.59-3.39,1.59-.63,0-1.2-.13-1.72-.38-.51-.25-1.05-.68-1.62-1.29v5.76h-3.03V4.35Zm2.99,5.53c0,1.29,.26,2.23,.77,2.85,.51,.61,1.13,.92,1.86,.92s1.29-.28,1.76-.85c.47-.56,.7-1.49,.7-2.77,0-1.2-.24-2.09-.72-2.67-.48-.58-1.08-.87-1.79-.87s-1.35,.29-1.84,.86c-.49,.57-.73,1.42-.73,2.54Z"/><path class="d" d="M192.71,4.35v2.41h-2.07v4.61c0,.93,.02,1.48,.06,1.63,.04,.15,.13,.28,.27,.38,.14,.1,.31,.15,.51,.15,.28,0,.69-.1,1.22-.29l.26,2.35c-.7,.3-1.5,.45-2.39,.45-.55,0-1.04-.09-1.48-.27-.44-.18-.76-.42-.96-.71-.2-.29-.35-.68-.43-1.18-.06-.35-.1-1.06-.1-2.13V6.77h-1.39v-2.41h1.39V2.08l3.04-1.77V4.35h2.07Z"/><path class="d" d="M194.81,2.8V0h3.03V2.8h-3.03Zm0,12.99V4.35h3.03V15.79h-3.03Z"/><path class="d" d="M204.09,15.79l-4.61-11.44h3.18l2.15,5.84,.62,1.95c.17-.49,.27-.82,.31-.98,.1-.32,.21-.65,.32-.97l2.18-5.84h3.11l-4.55,11.44h-2.73Z"/><path class="d" d="M219.84,12.15l3.02,.51c-.39,1.11-1,1.95-1.84,2.53-.84,.58-1.88,.87-3.14,.87-1.99,0-3.46-.65-4.42-1.95-.75-1.04-1.13-2.36-1.13-3.94,0-1.9,.5-3.38,1.49-4.45s2.24-1.61,3.76-1.61c1.7,0,3.04,.56,4.03,1.69,.98,1.12,1.45,2.85,1.41,5.17h-7.58c.02,.9,.27,1.6,.73,2.1,.47,.5,1.05,.75,1.75,.75,.47,0,.87-.13,1.2-.39s.57-.67,.73-1.25Zm.17-3.06c-.02-.88-.25-1.54-.68-2-.43-.46-.96-.68-1.57-.68-.66,0-1.21,.24-1.64,.72s-.64,1.13-.64,1.96h4.52Z"/><path class="d" d="M138.87,42.27h-3.03v-11.44h2.81v1.63c.48-.77,.91-1.27,1.3-1.52s.82-.37,1.31-.37c.69,0,1.35,.19,1.99,.57l-.94,2.64c-.51-.33-.98-.5-1.42-.5s-.78,.12-1.08,.35c-.29,.23-.53,.66-.69,1.27-.17,.61-.25,1.89-.25,3.84v3.53Z"/><path class="d" d="M151.18,38.63l3.02,.51c-.39,1.11-1,1.95-1.84,2.53-.84,.58-1.88,.87-3.14,.87-1.99,0-3.46-.65-4.42-1.95-.75-1.04-1.13-2.36-1.13-3.94,0-1.9,.5-3.38,1.49-4.45s2.24-1.61,3.76-1.61c1.7,0,3.04,.56,4.03,1.69,.98,1.12,1.45,2.85,1.41,5.17h-7.58c.02,.9,.27,1.6,.73,2.1,.47,.5,1.05,.75,1.75,.75,.47,0,.87-.13,1.2-.39s.57-.67,.73-1.25Zm.17-3.06c-.02-.88-.25-1.54-.68-2-.43-.46-.96-.68-1.57-.68-.66,0-1.21,.24-1.64,.72s-.64,1.13-.64,1.96h4.52Z"/><path class="d" d="M164.36,42.27v-1.71c-.42,.61-.96,1.09-1.64,1.44-.68,.35-1.4,.53-2.15,.53s-1.46-.17-2.07-.51c-.61-.34-1.05-.81-1.32-1.42-.27-.61-.41-1.45-.41-2.53v-7.24h3.03v5.26c0,1.61,.06,2.59,.17,2.96,.11,.36,.31,.65,.61,.86,.29,.21,.67,.32,1.12,.32,.52,0,.98-.14,1.39-.43,.41-.28,.69-.64,.84-1.06,.15-.42,.23-1.45,.23-3.09v-4.83h3.03v11.44h-2.81Z"/><path class="d" d="M169.24,39l3.04-.46c.13,.59,.39,1.04,.79,1.34,.39,.31,.95,.46,1.66,.46,.78,0,1.37-.14,1.77-.43,.27-.2,.4-.47,.4-.81,0-.23-.07-.42-.22-.57-.15-.14-.49-.28-1.01-.4-2.44-.54-3.99-1.03-4.64-1.48-.9-.62-1.36-1.48-1.36-2.57,0-.99,.39-1.82,1.17-2.5s2-1.01,3.64-1.01,2.73,.26,3.49,.76c.76,.51,1.29,1.26,1.57,2.26l-2.85,.53c-.12-.45-.35-.79-.7-1.02-.34-.24-.83-.36-1.46-.36-.8,0-1.37,.11-1.71,.33-.23,.16-.34,.36-.34,.61,0,.22,.1,.4,.3,.55,.27,.2,1.22,.48,2.83,.85s2.74,.82,3.38,1.35c.63,.54,.95,1.29,.95,2.25,0,1.05-.44,1.95-1.31,2.7-.88,.75-2.17,1.13-3.89,1.13-1.56,0-2.79-.32-3.7-.95-.91-.63-1.5-1.49-1.78-2.57Z"/><path class="d" d="M189.2,38.63l3.02,.51c-.39,1.11-1,1.95-1.84,2.53-.84,.58-1.88,.87-3.14,.87-1.99,0-3.46-.65-4.42-1.95-.75-1.04-1.13-2.36-1.13-3.94,0-1.9,.5-3.38,1.49-4.45,.99-1.07,2.24-1.61,3.76-1.61,1.7,0,3.04,.56,4.03,1.69,.98,1.12,1.45,2.85,1.41,5.17h-7.58c.02,.9,.27,1.6,.73,2.1,.47,.5,1.05,.75,1.75,.75,.47,0,.87-.13,1.2-.39s.57-.67,.73-1.25Zm.17-3.06c-.02-.88-.25-1.54-.68-2-.43-.46-.96-.68-1.57-.68-.66,0-1.21,.24-1.64,.72s-.64,1.13-.64,1.96h4.52Z"/></g><g><path class="d" d="M134.75,62.27l2.13-.33c.09,.41,.27,.73,.55,.94,.28,.21,.67,.32,1.17,.32,.55,0,.96-.1,1.24-.3,.19-.14,.28-.33,.28-.57,0-.16-.05-.3-.15-.4-.11-.1-.34-.19-.71-.28-1.72-.38-2.8-.72-3.26-1.04-.64-.43-.95-1.04-.95-1.81,0-.7,.27-1.28,.83-1.76s1.4-.71,2.56-.71,1.92,.18,2.45,.54,.9,.89,1.11,1.59l-2.01,.37c-.09-.31-.25-.55-.49-.72-.24-.17-.58-.25-1.03-.25-.56,0-.96,.08-1.2,.23-.16,.11-.24,.26-.24,.43,0,.15,.07,.28,.21,.39,.19,.14,.85,.34,1.99,.6,1.13,.26,1.92,.57,2.37,.95,.44,.38,.67,.91,.67,1.58,0,.74-.31,1.37-.92,1.9s-1.53,.79-2.73,.79c-1.1,0-1.96-.22-2.6-.67-.64-.44-1.06-1.05-1.25-1.81Z"/><path class="d" d="M145.71,58.98l-1.93-.35c.22-.78,.59-1.35,1.12-1.73s1.32-.56,2.36-.56c.95,0,1.66,.11,2.12,.34,.46,.22,.79,.51,.98,.86,.19,.35,.28,.98,.28,1.9l-.02,2.48c0,.71,.03,1.23,.1,1.56,.07,.34,.2,.69,.38,1.08h-2.1c-.06-.14-.12-.35-.2-.63-.04-.13-.06-.21-.08-.25-.36,.35-.75,.62-1.17,.79s-.86,.26-1.32,.26c-.83,0-1.48-.22-1.96-.67-.48-.45-.72-1.02-.72-1.7,0-.45,.11-.86,.33-1.21,.22-.36,.52-.63,.91-.82,.39-.19,.96-.35,1.69-.5,.99-.19,1.68-.36,2.07-.52v-.21c0-.41-.1-.7-.3-.87-.2-.17-.58-.26-1.14-.26-.38,0-.67,.07-.89,.22-.21,.15-.38,.41-.51,.78Zm2.85,1.73c-.27,.09-.7,.2-1.29,.33s-.98,.25-1.16,.37c-.28,.2-.42,.45-.42,.75s.11,.55,.33,.77,.5,.33,.85,.33c.38,0,.75-.13,1.1-.38,.26-.19,.43-.43,.51-.7,.06-.18,.08-.53,.08-1.04v-.42Z"/><path class="d" d="M151.81,56.52h1.18v-.61c0-.68,.07-1.18,.22-1.51,.14-.33,.41-.6,.8-.81,.39-.21,.87-.31,1.46-.31s1.2,.09,1.78,.27l-.29,1.48c-.34-.08-.66-.12-.98-.12s-.53,.07-.66,.22c-.13,.14-.2,.42-.2,.83v.57h1.59v1.67h-1.59v6.37h-2.13v-6.37h-1.18v-1.67Z"/><path class="d" d="M162.56,62l2.12,.36c-.27,.78-.7,1.37-1.29,1.78-.59,.41-1.32,.61-2.21,.61-1.4,0-2.43-.46-3.1-1.37-.53-.73-.79-1.66-.79-2.77,0-1.33,.35-2.38,1.04-3.13,.7-.75,1.58-1.13,2.64-1.13,1.2,0,2.14,.39,2.83,1.18,.69,.79,1.02,2,.99,3.63h-5.33c.02,.63,.19,1.12,.51,1.47,.33,.35,.74,.53,1.23,.53,.33,0,.61-.09,.84-.27s.4-.47,.51-.88Zm.12-2.15c-.02-.62-.17-1.08-.48-1.4-.3-.32-.67-.48-1.11-.48-.46,0-.85,.17-1.15,.51s-.45,.8-.45,1.38h3.18Z"/><path class="d" d="M137.54,83.17h-2.13v-8.04h1.98v1.14c.34-.54,.64-.9,.91-1.07,.27-.17,.58-.26,.92-.26,.48,0,.95,.13,1.4,.4l-.66,1.85c-.36-.23-.69-.35-1-.35s-.55,.08-.76,.25c-.21,.16-.37,.46-.49,.89-.12,.43-.18,1.33-.18,2.69v2.48Z"/><path class="d" d="M146.19,80.61l2.12,.36c-.27,.78-.7,1.37-1.29,1.78-.59,.41-1.32,.61-2.21,.61-1.4,0-2.43-.46-3.1-1.37-.53-.73-.79-1.66-.79-2.77,0-1.33,.35-2.38,1.04-3.13,.7-.75,1.58-1.13,2.64-1.13,1.2,0,2.14,.39,2.83,1.18,.69,.79,1.02,2,.99,3.63h-5.33c.02,.63,.19,1.12,.51,1.47,.33,.35,.74,.53,1.23,.53,.33,0,.61-.09,.84-.27s.4-.47,.51-.88Zm.12-2.15c-.02-.62-.17-1.08-.48-1.4-.3-.32-.67-.48-1.11-.48-.46,0-.85,.17-1.15,.51s-.45,.8-.45,1.38h3.18Z"/><path class="d" d="M149.23,75.13h1.18v-.61c0-.68,.07-1.18,.22-1.51,.14-.33,.41-.6,.8-.81,.39-.21,.87-.31,1.46-.31s1.2,.09,1.78,.27l-.29,1.48c-.34-.08-.66-.12-.98-.12s-.53,.07-.66,.22c-.13,.14-.2,.42-.2,.83v.57h1.59v1.67h-1.59v6.37h-2.13v-6.37h-1.18v-1.67Z"/><path class="d" d="M160.61,83.17v-1.2c-.29,.43-.68,.77-1.15,1.01-.48,.25-.98,.37-1.51,.37s-1.02-.12-1.45-.36-.74-.57-.93-1-.29-1.02-.29-1.78v-5.09h2.13v3.69c0,1.13,.04,1.82,.12,2.08,.08,.26,.22,.46,.43,.61,.21,.15,.47,.22,.79,.22,.36,0,.69-.1,.98-.3,.29-.2,.48-.45,.59-.74,.11-.29,.16-1.02,.16-2.17v-3.39h2.13v8.04h-1.98Z"/><path class="d" d="M164.59,83.7l2.43,.3c.04,.28,.13,.48,.28,.58,.2,.15,.52,.23,.95,.23,.55,0,.97-.08,1.25-.25,.19-.11,.33-.29,.42-.54,.07-.18,.1-.5,.1-.98v-1.17c-.64,.87-1.44,1.3-2.41,1.3-1.08,0-1.94-.46-2.57-1.37-.49-.72-.74-1.62-.74-2.69,0-1.35,.32-2.38,.97-3.09,.65-.71,1.46-1.07,2.42-1.07s1.81,.44,2.46,1.31v-1.13h1.99v7.21c0,.95-.08,1.66-.23,2.13s-.38,.84-.66,1.11-.66,.48-1.13,.63c-.47,.15-1.07,.23-1.79,.23-1.36,0-2.33-.23-2.9-.7-.57-.47-.86-1.06-.86-1.77,0-.07,0-.16,0-.26Zm1.9-4.72c0,.85,.17,1.48,.5,1.87,.33,.4,.74,.59,1.22,.59,.52,0,.96-.2,1.32-.61,.36-.41,.54-1.01,.54-1.81s-.17-1.45-.51-1.85-.78-.61-1.3-.61-.93,.2-1.26,.59c-.33,.4-.5,1-.5,1.81Z"/><path class="d" d="M178.92,80.61l2.12,.36c-.27,.78-.7,1.37-1.29,1.78-.59,.41-1.32,.61-2.21,.61-1.4,0-2.43-.46-3.1-1.37-.53-.73-.79-1.66-.79-2.77,0-1.33,.35-2.38,1.04-3.13,.7-.75,1.58-1.13,2.64-1.13,1.2,0,2.14,.39,2.83,1.18,.69,.79,1.02,2,.99,3.63h-5.33c.02,.63,.19,1.12,.51,1.47,.33,.35,.74,.53,1.23,.53,.33,0,.61-.09,.84-.27s.4-.47,.51-.88Zm.12-2.15c-.02-.62-.17-1.08-.48-1.4-.3-.32-.67-.48-1.11-.48-.46,0-.85,.17-1.15,.51s-.45,.8-.45,1.38h3.18Z"/></g><g><line class="d" x1="27.73" y1="21.27" x2="28.24" y2="86.5"/><path d="M25.53,21.27l.17,22.16,.28,35.03,.06,8.03c.02,2.82,4.41,2.83,4.39,0l-.17-22.16-.28-35.03-.06-8.03c-.02-2.82-4.41-2.83-4.39,0h0Z"/></g><g><line class="d" x1="87.56" y1="20.78" x2="88.07" y2="86.01"/><path d="M85.37,20.78l.17,22.16,.28,35.03,.06,8.03c.02,2.82,4.41,2.83,4.39,0l-.17-22.16-.28-35.03-.06-8.03c-.02-2.82-4.41-2.83-4.39,0h0Z"/></g></g></g></svg>