<?xml version="1.0" encoding="UTF-8"?><svg xmlns="http://www.w3.org/2000/svg" viewBox="0 0 198.49 99.59"><defs><style>.d{fill:#010101;}</style></defs><g id="a"/><g id="b"><g id="c"><circle class="d" cx="42.35" cy="50.59" r="27.89"/><path class="d" d="M1.03,6.16l15.48,17.79,.72-5.55C2.69,29.25-3.96,48.46,2.43,65.78c5.75,15.59,20.4,26.44,37.05,27.16,10.93,.47,21.43-3.62,29.53-10.86h-5l14.54,16.37c3.03,3.41,8.02-1.61,5-5l-14.54-16.37c-1.32-1.48-3.64-1.21-5,0-11.32,10.12-28.18,11.66-41.06,3.57-11.52-7.23-17.85-21.3-15.38-34.73,1.57-8.52,6.27-16.23,13.23-21.43,1.9-1.42,2.34-3.69,.72-5.55L6.04,1.15C3.04-2.29-1.94,2.73,1.03,6.16h0Z"/><g><path class="d" d="M105.07,29.35l2.98,.5c-.38,1.09-.99,1.93-1.82,2.5-.83,.57-1.86,.86-3.1,.86-1.97,0-3.42-.64-4.37-1.93-.75-1.03-1.12-2.33-1.12-3.9,0-1.87,.49-3.34,1.47-4.4s2.22-1.59,3.72-1.59c1.68,0,3.01,.56,3.98,1.67,.97,1.11,1.44,2.81,1.39,5.11h-7.5c.02,.89,.26,1.58,.72,2.07,.46,.49,1.04,.74,1.73,.74,.47,0,.86-.13,1.18-.38s.56-.67,.72-1.24Zm.17-3.02c-.02-.87-.24-1.52-.67-1.98-.43-.45-.94-.68-1.56-.68-.65,0-1.19,.24-1.62,.71s-.63,1.12-.63,1.94h4.47Z"/><path class="d" d="M121.03,32.95h-2.78v-1.66c-.46,.65-1.01,1.13-1.63,1.44-.63,.32-1.26,.47-1.9,.47-1.3,0-2.41-.52-3.34-1.57-.93-1.05-1.39-2.51-1.39-4.38s.45-3.37,1.35-4.37c.9-1,2.04-1.5,3.42-1.5,1.26,0,2.36,.53,3.28,1.58v-5.62h2.99v15.61Zm-7.99-5.9c0,1.21,.17,2.08,.5,2.62,.48,.78,1.16,1.17,2.02,1.17,.69,0,1.27-.29,1.76-.88,.48-.59,.72-1.46,.72-2.63,0-1.3-.23-2.23-.7-2.81s-1.07-.86-1.8-.86-1.3,.28-1.78,.85c-.48,.56-.72,1.41-.72,2.53Z"/><path class="d" d="M131.42,32.95v-1.69c-.41,.6-.95,1.08-1.62,1.43-.67,.35-1.38,.52-2.12,.52s-1.44-.17-2.04-.5c-.6-.33-1.04-.8-1.31-1.41-.27-.6-.41-1.44-.41-2.5v-7.16h2.99v5.2c0,1.59,.05,2.57,.17,2.92,.11,.36,.31,.64,.6,.85,.29,.21,.66,.31,1.11,.31,.51,0,.97-.14,1.37-.42,.4-.28,.68-.63,.83-1.04,.15-.42,.22-1.43,.22-3.05v-4.77h2.99v11.31h-2.78Z"/><path class="d" d="M147.16,24.98l-2.95,.53c-.1-.59-.32-1.03-.68-1.33-.35-.3-.81-.45-1.37-.45-.75,0-1.34,.26-1.78,.77s-.67,1.38-.67,2.58c0,1.34,.23,2.29,.68,2.84,.45,.55,1.06,.83,1.82,.83,.57,0,1.03-.16,1.4-.48,.36-.32,.62-.88,.77-1.67l2.94,.5c-.31,1.35-.89,2.37-1.76,3.06-.87,.69-2.03,1.03-3.48,1.03-1.65,0-2.97-.52-3.96-1.57-.98-1.04-1.48-2.49-1.48-4.33s.49-3.32,1.48-4.36c.99-1.04,2.32-1.56,4-1.56,1.38,0,2.47,.3,3.29,.89s1.4,1.5,1.75,2.71Z"/><path class="d" d="M151.67,25.09l-2.72-.49c.31-1.09,.83-1.9,1.58-2.43s1.85-.79,3.32-.79c1.33,0,2.33,.16,2.98,.47,.65,.32,1.11,.72,1.38,1.2,.27,.49,.4,1.38,.4,2.68l-.03,3.49c0,.99,.05,1.73,.14,2.2,.1,.47,.28,.98,.54,1.52h-2.96c-.08-.2-.17-.49-.29-.88-.05-.18-.09-.29-.11-.35-.51,.5-1.06,.87-1.64,1.12-.58,.25-1.2,.37-1.86,.37-1.16,0-2.08-.32-2.75-.95-.67-.63-1.01-1.43-1.01-2.4,0-.64,.15-1.21,.46-1.71,.31-.5,.73-.88,1.28-1.15,.55-.27,1.34-.5,2.38-.7,1.4-.26,2.37-.51,2.91-.73v-.3c0-.58-.14-.99-.43-1.23-.28-.25-.82-.37-1.61-.37-.53,0-.95,.11-1.25,.31-.3,.21-.54,.58-.72,1.1Zm4,2.43c-.38,.13-.99,.28-1.82,.46-.83,.18-1.37,.35-1.63,.52-.39,.28-.59,.63-.59,1.05s.16,.78,.47,1.09c.31,.31,.71,.46,1.19,.46,.54,0,1.05-.18,1.54-.53,.36-.27,.6-.6,.71-.99,.08-.26,.12-.74,.12-1.46v-.6Z"/><path class="d" d="M166.75,21.64v2.39h-2.04v4.56c0,.92,.02,1.46,.06,1.61,.04,.15,.13,.28,.27,.38,.14,.1,.31,.15,.51,.15,.28,0,.68-.1,1.2-.29l.26,2.32c-.7,.3-1.48,.45-2.36,.45-.54,0-1.03-.09-1.46-.27-.43-.18-.75-.42-.95-.7-.2-.29-.34-.68-.42-1.17-.06-.35-.1-1.05-.1-2.11v-4.93h-1.37v-2.39h1.37v-2.25l3-1.75v3.99h2.04Z"/><path class="d" d="M168.82,20.1v-2.77h2.99v2.77h-2.99Zm0,12.84v-11.31h2.99v11.31h-2.99Z"/><path class="d" d="M174.19,27.13c0-.99,.24-1.96,.74-2.89,.49-.93,1.18-1.64,2.08-2.13,.9-.49,1.9-.74,3.01-.74,1.71,0,3.11,.56,4.21,1.67,1.09,1.11,1.64,2.51,1.64,4.21s-.55,3.13-1.66,4.25c-1.1,1.13-2.49,1.69-4.17,1.69-1.04,0-2.03-.23-2.97-.7s-1.66-1.16-2.15-2.06c-.49-.9-.74-2.01-.74-3.31Zm3.07,.16c0,1.12,.27,1.98,.8,2.58,.53,.6,1.19,.89,1.97,.89s1.44-.3,1.96-.89,.79-1.46,.79-2.6-.26-1.96-.79-2.56-1.18-.89-1.96-.89-1.44,.3-1.97,.89c-.53,.6-.8,1.46-.8,2.58Z"/><path class="d" d="M198.49,32.95h-2.99v-5.77c0-1.22-.06-2.01-.19-2.37s-.34-.64-.62-.84c-.29-.2-.63-.3-1.04-.3-.52,0-.98,.14-1.39,.43-.41,.28-.69,.66-.85,1.13-.15,.47-.23,1.33-.23,2.6v5.12h-2.99v-11.31h2.78v1.66c.99-1.28,2.23-1.92,3.73-1.92,.66,0,1.26,.12,1.81,.36s.96,.54,1.24,.91c.28,.37,.48,.79,.59,1.26,.11,.47,.16,1.14,.16,2.01v7.03Z"/></g><g><path class="d" d="M97.32,52.1l2.11-.32c.09,.41,.27,.72,.55,.93,.27,.21,.66,.32,1.15,.32,.54,0,.95-.1,1.23-.3,.18-.14,.28-.33,.28-.56,0-.16-.05-.29-.15-.4-.1-.1-.34-.19-.7-.28-1.7-.37-2.77-.72-3.23-1.03-.63-.43-.94-1.03-.94-1.79,0-.69,.27-1.27,.82-1.74s1.39-.7,2.53-.7,1.9,.18,2.42,.53,.89,.88,1.09,1.57l-1.98,.37c-.08-.31-.25-.55-.48-.71-.24-.16-.57-.25-1.01-.25-.55,0-.95,.08-1.19,.23-.16,.11-.24,.25-.24,.43,0,.15,.07,.28,.21,.38,.19,.14,.84,.34,1.96,.59,1.12,.25,1.9,.57,2.35,.94,.44,.37,.66,.9,.66,1.56,0,.73-.3,1.35-.91,1.88s-1.51,.79-2.7,.79c-1.08,0-1.94-.22-2.57-.66-.63-.44-1.04-1.03-1.24-1.79Z"/><path class="d" d="M108.15,48.84l-1.91-.34c.21-.77,.58-1.34,1.11-1.71s1.3-.55,2.33-.55c.94,0,1.64,.11,2.1,.33,.46,.22,.78,.5,.97,.85,.19,.34,.28,.97,.28,1.88l-.02,2.45c0,.7,.03,1.21,.1,1.55,.07,.33,.19,.69,.38,1.07h-2.08c-.05-.14-.12-.35-.2-.62-.04-.12-.06-.21-.07-.25-.36,.35-.74,.61-1.15,.79s-.85,.26-1.31,.26c-.82,0-1.46-.22-1.93-.67-.47-.44-.71-1.01-.71-1.68,0-.45,.11-.85,.32-1.2,.21-.35,.52-.62,.9-.81,.39-.19,.94-.35,1.67-.49,.98-.18,1.66-.36,2.04-.52v-.21c0-.4-.1-.69-.3-.86-.2-.17-.58-.26-1.13-.26-.37,0-.67,.07-.88,.22-.21,.15-.38,.41-.51,.77Zm2.81,1.71c-.27,.09-.7,.2-1.28,.32s-.97,.25-1.14,.37c-.27,.19-.41,.44-.41,.74s.11,.55,.33,.76,.5,.32,.84,.32c.38,0,.74-.12,1.09-.37,.25-.19,.42-.42,.5-.7,.05-.18,.08-.52,.08-1.03v-.42Z"/><path class="d" d="M114.19,46.42h1.17v-.6c0-.67,.07-1.17,.21-1.5,.14-.33,.4-.6,.79-.8,.38-.21,.86-.31,1.45-.31s1.18,.09,1.76,.27l-.28,1.47c-.33-.08-.66-.12-.97-.12s-.52,.07-.65,.21c-.13,.14-.2,.42-.2,.82v.56h1.57v1.65h-1.57v6.29h-2.1v-6.29h-1.17v-1.65Z"/><path class="d" d="M124.81,51.84l2.1,.35c-.27,.77-.69,1.35-1.28,1.76-.58,.4-1.31,.6-2.18,.6-1.38,0-2.4-.45-3.07-1.35-.52-.72-.79-1.64-.79-2.74,0-1.32,.34-2.35,1.03-3.09,.69-.75,1.56-1.12,2.61-1.12,1.18,0,2.12,.39,2.8,1.17,.68,.78,1.01,1.98,.98,3.59h-5.27c.01,.62,.18,1.11,.51,1.46,.32,.35,.73,.52,1.21,.52,.33,0,.61-.09,.83-.27s.39-.47,.51-.87Zm.12-2.13c-.01-.61-.17-1.07-.47-1.39-.3-.32-.66-.47-1.09-.47-.46,0-.84,.17-1.14,.5s-.45,.79-.44,1.36h3.14Z"/><path class="d" d="M100.07,72.76h-2.1v-7.95h1.95v1.13c.33-.53,.63-.89,.9-1.06,.27-.17,.57-.25,.91-.25,.48,0,.94,.13,1.38,.4l-.65,1.83c-.35-.23-.68-.34-.99-.34s-.54,.08-.75,.24c-.2,.16-.37,.46-.48,.88-.12,.42-.18,1.31-.18,2.66v2.45Z"/><path class="d" d="M108.63,70.23l2.1,.35c-.27,.77-.69,1.35-1.28,1.76-.58,.4-1.31,.6-2.18,.6-1.38,0-2.4-.45-3.07-1.35-.52-.72-.79-1.64-.79-2.74,0-1.32,.34-2.35,1.03-3.09,.69-.75,1.56-1.12,2.61-1.12,1.18,0,2.12,.39,2.8,1.17,.68,.78,1.01,1.98,.98,3.59h-5.27c.01,.62,.18,1.11,.51,1.46,.32,.35,.73,.52,1.21,.52,.33,0,.61-.09,.83-.27s.39-.47,.51-.87Zm.12-2.13c-.01-.61-.17-1.07-.47-1.39-.3-.32-.66-.47-1.09-.47-.46,0-.84,.17-1.14,.5s-.45,.79-.44,1.36h3.14Z"/><path class="d" d="M111.63,64.81h1.17v-.6c0-.67,.07-1.17,.21-1.5,.14-.33,.4-.6,.79-.8,.38-.21,.86-.31,1.45-.31s1.18,.09,1.76,.27l-.28,1.47c-.33-.08-.66-.12-.97-.12s-.52,.07-.65,.21c-.13,.14-.2,.42-.2,.82v.56h1.57v1.65h-1.57v6.29h-2.1v-6.29h-1.17v-1.65Z"/><path class="d" d="M122.88,72.76v-1.19c-.29,.42-.67,.76-1.14,1-.47,.24-.97,.37-1.49,.37s-1.01-.12-1.44-.35-.73-.56-.92-.99-.28-1.01-.28-1.76v-5.03h2.1v3.65c0,1.12,.04,1.8,.12,2.05,.08,.25,.22,.45,.42,.6,.2,.15,.46,.22,.78,.22,.36,0,.68-.1,.97-.3,.28-.2,.48-.44,.58-.73,.1-.29,.16-1.01,.16-2.14v-3.35h2.1v7.95h-1.95Z"/><path class="d" d="M126.82,73.28l2.4,.29c.04,.28,.13,.47,.28,.58,.2,.15,.51,.22,.94,.22,.55,0,.96-.08,1.23-.25,.18-.11,.32-.29,.42-.53,.07-.17,.1-.5,.1-.97v-1.16c-.63,.86-1.42,1.29-2.38,1.29-1.07,0-1.91-.45-2.54-1.35-.49-.71-.73-1.6-.73-2.66,0-1.33,.32-2.35,.96-3.05,.64-.7,1.44-1.06,2.39-1.06s1.79,.43,2.43,1.29v-1.12h1.97v7.13c0,.94-.08,1.64-.23,2.1s-.37,.83-.65,1.09-.65,.47-1.12,.62c-.47,.15-1.06,.22-1.77,.22-1.35,0-2.3-.23-2.87-.69-.56-.46-.85-1.05-.85-1.75,0-.07,0-.15,0-.25Zm1.88-4.66c0,.84,.16,1.46,.49,1.85,.33,.39,.73,.59,1.21,.59,.51,0,.95-.2,1.3-.6,.35-.4,.53-1,.53-1.78s-.17-1.43-.51-1.83-.77-.6-1.29-.6-.92,.2-1.25,.59c-.33,.39-.49,.99-.49,1.79Z"/><path class="d" d="M140.98,70.23l2.1,.35c-.27,.77-.69,1.35-1.28,1.76-.58,.4-1.31,.6-2.18,.6-1.38,0-2.4-.45-3.07-1.35-.52-.72-.79-1.64-.79-2.74,0-1.32,.34-2.35,1.03-3.09,.69-.75,1.56-1.12,2.61-1.12,1.18,0,2.12,.39,2.8,1.17,.68,.78,1.01,1.98,.98,3.59h-5.27c.01,.62,.18,1.11,.51,1.46,.32,.35,.73,.52,1.21,.52,.33,0,.61-.09,.83-.27s.39-.47,.51-.87Zm.12-2.13c-.01-.61-.17-1.07-.47-1.39-.3-.32-.66-.47-1.09-.47-.46,0-.84,.17-1.14,.5s-.45,.79-.44,1.36h3.14Z"/></g></g></g></svg>