<?xml version="1.0" encoding="UTF-8"?><svg xmlns="http://www.w3.org/2000/svg" viewBox="0 0 53.46 45.18"><defs><style>.d{fill:#bcbcbb;}</style></defs><g id="a"/><g id="b"><g id="c"><path class="d" d="M10.38,40.25L1.78,34.12l.58,1.02v-14.53l-1.77,1.02,12.25,8.82-.58-1.02v14.55c0,.83,1.03,1.56,1.77,1.02l11.86-8.53c.6-.43,1.29-.78,1.36-1.6,.06-.65,0-1.33,0-1.98v-15.72c0-.84-1.02-1.55-1.77-1.02l-11.29,7.98h1.19L2.81,15.04l.24,1.85L14.22,3.85l1.58-1.84h-1.67l9.42,11.66,.24-1.85-9.6,6.94,1.77,1.02,.15-12.69c.02-1.52-2.34-1.52-2.36,0l-.15,12.69c-.01,.83,1.03,1.55,1.77,1.02l9.6-6.94c.66-.48,.75-1.22,.24-1.85L15.8,.34c-.38-.47-1.28-.45-1.67,0L2.96,13.38l-1.58,1.84c-.53,.62-.41,1.38,.24,1.85l12.57,9.09c.31,.23,.88,.22,1.19,0l11.29-7.98-1.77-1.02v17.73l.58-1.02-12.64,9.09,1.77,1.02v-13.2c0-.51,.1-1.15-.04-1.66-.17-.6-1.02-1.05-1.51-1.4l-6.26-4.51-5.02-3.61C1.03,19.06,0,19.78,0,20.61v13.75c0,.72-.06,1.26,.58,1.79,1.23,1,2.61,1.86,3.9,2.78l4.7,3.35c1.24,.88,2.42-1.16,1.19-2.04h0Z"/><g><path class="d" d="M31.72,17.2h.85v.51c.11-.17,.26-.32,.45-.42s.4-.16,.63-.16c.4,0,.74,.16,1.02,.47s.42,.75,.42,1.32-.14,1.03-.42,1.35c-.28,.32-.63,.48-1.03,.48-.19,0-.36-.04-.52-.11-.16-.08-.32-.21-.49-.39v1.75h-.92v-4.78Zm.91,1.67c0,.39,.08,.68,.23,.86,.15,.19,.34,.28,.56,.28s.39-.09,.53-.26c.14-.17,.21-.45,.21-.84,0-.36-.07-.63-.22-.81s-.33-.26-.54-.26-.41,.09-.56,.26c-.15,.17-.22,.43-.22,.77Z"/><path class="d" d="M36.7,20.66h-.92v-3.46h.85v.49c.15-.23,.28-.39,.39-.46,.12-.07,.25-.11,.4-.11,.21,0,.41,.06,.6,.17l-.28,.8c-.15-.1-.3-.15-.43-.15s-.24,.04-.33,.11c-.09,.07-.16,.2-.21,.38-.05,.18-.08,.57-.08,1.16v1.07Z"/><path class="d" d="M38.21,18.88c0-.3,.08-.6,.23-.88s.36-.5,.64-.65c.28-.15,.58-.23,.92-.23,.52,0,.95,.17,1.29,.51,.33,.34,.5,.77,.5,1.29s-.17,.96-.51,1.3c-.34,.34-.76,.52-1.28,.52-.32,0-.62-.07-.91-.22-.29-.14-.51-.35-.66-.63-.15-.28-.23-.61-.23-1.01Zm.94,.05c0,.34,.08,.61,.24,.79s.36,.27,.6,.27,.44-.09,.6-.27c.16-.18,.24-.45,.24-.8s-.08-.6-.24-.78c-.16-.18-.36-.27-.6-.27s-.44,.09-.6,.27-.24,.45-.24,.79Z"/><path class="d" d="M43.4,17.2v3.36c0,.44-.03,.75-.09,.93-.06,.18-.17,.32-.33,.43-.16,.1-.37,.15-.63,.15-.09,0-.19,0-.3-.02-.11-.02-.22-.04-.34-.07l.16-.78s.08,.02,.12,.02c.04,0,.07,0,.11,0,.09,0,.17-.02,.23-.06,.06-.04,.1-.09,.12-.15s.03-.23,.03-.51v-3.3h.92Zm-.92-.47v-.85h.92v.85h-.92Z"/><path class="d" d="M46.37,19.56l.91,.15c-.12,.33-.3,.59-.56,.77-.25,.18-.57,.26-.95,.26-.6,0-1.05-.2-1.34-.59-.23-.32-.34-.71-.34-1.19,0-.57,.15-1.02,.45-1.35,.3-.33,.68-.49,1.14-.49,.52,0,.92,.17,1.22,.51,.3,.34,.44,.86,.43,1.56h-2.3c0,.27,.08,.48,.22,.63,.14,.15,.32,.23,.53,.23,.14,0,.26-.04,.36-.12s.17-.2,.22-.38Zm.05-.93c0-.27-.08-.47-.21-.61-.13-.14-.29-.21-.48-.21-.2,0-.37,.07-.5,.22s-.19,.34-.19,.59h1.37Z"/><path class="d" d="M51.1,18.22l-.9,.16c-.03-.18-.1-.32-.21-.41-.11-.09-.25-.14-.42-.14-.23,0-.41,.08-.55,.24-.14,.16-.2,.42-.2,.79,0,.41,.07,.7,.21,.87,.14,.17,.32,.25,.56,.25,.17,0,.32-.05,.43-.15,.11-.1,.19-.27,.23-.51l.9,.15c-.09,.41-.27,.73-.54,.94s-.62,.32-1.07,.32c-.51,0-.91-.16-1.21-.48-.3-.32-.45-.76-.45-1.33s.15-1.02,.45-1.34c.3-.32,.71-.48,1.23-.48,.42,0,.76,.09,1.01,.27,.25,.18,.43,.46,.54,.83Z"/><path class="d" d="M53.38,17.2v.73h-.63v1.4c0,.28,0,.45,.02,.49,.01,.05,.04,.09,.08,.12,.04,.03,.09,.05,.16,.05,.08,0,.21-.03,.37-.09l.08,.71c-.21,.09-.45,.14-.72,.14-.17,0-.31-.03-.45-.08-.13-.06-.23-.13-.29-.22-.06-.09-.1-.21-.13-.36-.02-.11-.03-.32-.03-.65v-1.51h-.42v-.73h.42v-.69l.92-.54v1.22h.63Z"/><path class="d" d="M31.42,26.75l.92-.14c.04,.18,.12,.31,.24,.41,.12,.09,.29,.14,.5,.14,.24,0,.42-.04,.54-.13,.08-.06,.12-.14,.12-.24,0-.07-.02-.13-.07-.17-.05-.04-.15-.08-.31-.12-.74-.16-1.21-.31-1.41-.45-.27-.19-.41-.45-.41-.78,0-.3,.12-.55,.36-.76s.6-.31,1.1-.31,.83,.08,1.06,.23,.39,.38,.48,.69l-.86,.16c-.04-.13-.11-.24-.21-.31-.1-.07-.25-.11-.44-.11-.24,0-.41,.03-.52,.1-.07,.05-.1,.11-.1,.19,0,.07,.03,.12,.09,.17,.08,.06,.37,.15,.86,.26,.49,.11,.83,.25,1.02,.41,.19,.16,.29,.39,.29,.68,0,.32-.13,.59-.4,.82s-.66,.34-1.18,.34c-.47,0-.85-.1-1.12-.29-.28-.19-.46-.45-.54-.78Z"/><path class="d" d="M36.14,25.33l-.83-.15c.09-.33,.25-.58,.48-.74s.57-.24,1.02-.24c.41,0,.71,.05,.91,.15,.2,.1,.34,.22,.42,.37,.08,.15,.12,.42,.12,.82v1.07c0,.3,0,.53,.03,.67,.03,.14,.08,.3,.16,.46h-.91c-.02-.06-.05-.15-.09-.27-.02-.05-.03-.09-.03-.11-.16,.15-.32,.27-.5,.34s-.37,.11-.57,.11c-.36,0-.64-.1-.84-.29-.21-.19-.31-.44-.31-.73,0-.2,.05-.37,.14-.52,.09-.15,.22-.27,.39-.35,.17-.08,.41-.15,.73-.21,.43-.08,.73-.16,.89-.23v-.09c0-.18-.04-.3-.13-.38-.09-.08-.25-.11-.49-.11-.16,0-.29,.03-.38,.1-.09,.06-.17,.18-.22,.34Zm1.23,.74c-.12,.04-.3,.09-.56,.14s-.42,.11-.5,.16c-.12,.08-.18,.19-.18,.32s.05,.24,.14,.33,.22,.14,.37,.14c.17,0,.32-.05,.47-.16,.11-.08,.18-.18,.22-.3,.02-.08,.04-.23,.04-.45v-.18Z"/><path class="d" d="M38.77,24.27h.51v-.26c0-.29,.03-.51,.09-.65,.06-.14,.18-.26,.34-.35,.17-.09,.38-.14,.63-.14s.52,.04,.77,.12l-.12,.64c-.15-.03-.29-.05-.42-.05s-.23,.03-.29,.09c-.06,.06-.09,.18-.09,.36v.24h.69v.72h-.69v2.74h-.92v-2.74h-.51v-.72Z"/><path class="d" d="M43.4,26.63l.91,.15c-.12,.33-.3,.59-.56,.77-.25,.18-.57,.26-.95,.26-.6,0-1.05-.2-1.34-.59-.23-.32-.34-.71-.34-1.19,0-.57,.15-1.02,.45-1.35,.3-.33,.68-.49,1.14-.49,.52,0,.92,.17,1.22,.51,.3,.34,.44,.86,.43,1.56h-2.3c0,.27,.08,.48,.22,.63,.14,.15,.32,.23,.53,.23,.14,0,.26-.04,.36-.12s.17-.2,.22-.38Zm.05-.93c0-.27-.08-.47-.21-.61-.13-.14-.29-.21-.48-.21-.2,0-.37,.07-.5,.22s-.19,.34-.19,.59h1.37Z"/><path class="d" d="M32.62,34.81h-.92v-3.46h.85v.49c.15-.23,.28-.39,.39-.46,.12-.07,.25-.11,.4-.11,.21,0,.41,.06,.6,.17l-.28,.8c-.15-.1-.3-.15-.43-.15s-.24,.04-.33,.11c-.09,.07-.16,.2-.21,.38-.05,.18-.08,.57-.08,1.16v1.07Z"/><path class="d" d="M36.35,33.71l.91,.15c-.12,.33-.3,.59-.56,.77-.25,.18-.57,.26-.95,.26-.6,0-1.05-.2-1.34-.59-.23-.32-.34-.71-.34-1.19,0-.57,.15-1.02,.45-1.35,.3-.33,.68-.49,1.14-.49,.52,0,.92,.17,1.22,.51,.3,.34,.44,.86,.43,1.56h-2.3c0,.27,.08,.48,.22,.63,.14,.15,.32,.23,.53,.23,.14,0,.26-.04,.36-.12s.17-.2,.22-.38Zm.05-.93c0-.27-.08-.47-.21-.61-.13-.14-.29-.21-.48-.21-.2,0-.37,.07-.5,.22s-.19,.34-.19,.59h1.37Z"/><path class="d" d="M37.66,31.35h.51v-.26c0-.29,.03-.51,.09-.65,.06-.14,.18-.26,.34-.35,.17-.09,.38-.14,.63-.14s.52,.04,.77,.12l-.12,.64c-.15-.03-.29-.05-.42-.05s-.23,.03-.29,.09c-.06,.06-.09,.18-.09,.36v.24h.69v.72h-.69v2.74h-.92v-2.74h-.51v-.72Z"/><path class="d" d="M42.56,34.81v-.52c-.13,.18-.29,.33-.5,.44-.21,.11-.42,.16-.65,.16s-.44-.05-.63-.15-.32-.25-.4-.43-.12-.44-.12-.77v-2.19h.92v1.59c0,.49,.02,.79,.05,.9,.03,.11,.09,.2,.18,.26,.09,.06,.2,.1,.34,.1,.16,0,.3-.04,.42-.13,.12-.09,.21-.19,.25-.32,.05-.13,.07-.44,.07-.93v-1.46h.92v3.46h-.85Z"/><path class="d" d="M44.28,35.04l1.05,.13c.02,.12,.06,.21,.12,.25,.09,.07,.22,.1,.41,.1,.24,0,.42-.04,.54-.11,.08-.05,.14-.13,.18-.23,.03-.08,.04-.22,.04-.42v-.51c-.27,.37-.62,.56-1.04,.56-.47,0-.83-.2-1.11-.59-.21-.31-.32-.7-.32-1.16,0-.58,.14-1.02,.42-1.33,.28-.31,.63-.46,1.04-.46s.78,.19,1.06,.56v-.49h.86v3.11c0,.41-.03,.71-.1,.92s-.16,.36-.28,.48-.28,.21-.49,.27c-.2,.07-.46,.1-.77,.1-.59,0-1-.1-1.25-.3-.25-.2-.37-.46-.37-.76,0-.03,0-.07,0-.11Zm.82-2.03c0,.37,.07,.64,.21,.81,.14,.17,.32,.26,.53,.26,.22,0,.41-.09,.57-.26,.15-.18,.23-.43,.23-.78s-.07-.63-.22-.8-.33-.26-.56-.26-.4,.09-.54,.26c-.14,.17-.21,.43-.21,.78Z"/><path class="d" d="M50.45,33.71l.91,.15c-.12,.33-.3,.59-.56,.77-.25,.18-.57,.26-.95,.26-.6,0-1.05-.2-1.34-.59-.23-.32-.34-.71-.34-1.19,0-.57,.15-1.02,.45-1.35,.3-.33,.68-.49,1.14-.49,.52,0,.92,.17,1.22,.51,.3,.34,.44,.86,.43,1.56h-2.3c0,.27,.08,.48,.22,.63,.14,.15,.32,.23,.53,.23,.14,0,.26-.04,.36-.12s.17-.2,.22-.38Zm.05-.93c0-.27-.08-.47-.21-.61-.13-.14-.29-.21-.48-.21-.2,0-.37,.07-.5,.22s-.19,.34-.19,.59h1.37Z"/></g></g></g></svg>