<?xml version="1.0" encoding="UTF-8"?><svg xmlns="http://www.w3.org/2000/svg" viewBox="0 0 246.55 91.17"><defs><style>.d{fill:#1d1d1b;}.e{fill:#010101;}</style></defs><g id="a"/><g id="b"><g id="c"><g><path class="e" d="M61.68,32.59l25.18,42.81,3.03-5.28H39.53l3.03,5.28,25.18-42.81c2.29-3.9-3.77-7.44-6.06-3.54l-25.18,42.81c-1.35,2.3,.38,5.28,3.03,5.28h50.35c2.65,0,4.38-2.98,3.03-5.28l-25.18-42.81c-2.29-3.89-8.36-.36-6.06,3.54Z"/><polygon class="e" points="91.88 71.35 66.23 71.35 40.57 71.35 53.4 50.41 66.23 29.47 79.05 50.41 91.88 71.35"/><path class="e" d="M41.33,70.12H23.45l3.03,5.28L62.36,13.95l5.08-8.7h-6.06l43.51,71.74c2.04,3.37,4.08,7.73,6.13,11.1l3.03-5.28H3.45l3.03,5.28c9-15.59,17.99-32.18,26.99-47.77l3.82-6.62c2.26-3.92-3.8-7.46-6.06-3.54L4.24,76.92c-1.27,2.21-2.63,5.32-3.82,7.62-1.22,2.36,.36,5.28,3.03,5.28H114.04c2.63,0,4.42-2.99,3.03-5.28-14.5-23.91-29.01-48.82-43.51-72.74l-6.13-10.1c-1.36-2.24-4.72-2.3-6.06,0L25.5,63.16l-5.08,8.7c-1.34,2.3,.37,5.28,3.03,5.28h17.87c4.52,0,4.52-7.02,0-7.02h0Z"/></g><g><path class="e" d="M131.67,67.47l2.09-.32c.09,.41,.27,.71,.54,.92,.27,.21,.65,.32,1.14,.32,.54,0,.95-.1,1.22-.3,.18-.14,.27-.32,.27-.56,0-.16-.05-.29-.15-.39-.1-.1-.34-.19-.7-.27-1.68-.37-2.75-.71-3.2-1.02-.62-.43-.94-1.02-.94-1.77,0-.68,.27-1.26,.81-1.72s1.38-.7,2.51-.7,1.88,.18,2.41,.53,.89,.87,1.08,1.56l-1.97,.36c-.08-.31-.24-.54-.48-.71-.23-.16-.57-.25-1.01-.25-.55,0-.94,.08-1.18,.23-.16,.11-.24,.25-.24,.42,0,.15,.07,.27,.21,.38,.19,.14,.84,.33,1.95,.59,1.11,.25,1.89,.56,2.33,.93,.44,.37,.65,.89,.65,1.55,0,.72-.3,1.34-.91,1.86s-1.5,.78-2.68,.78c-1.07,0-1.92-.22-2.55-.65-.63-.44-1.04-1.03-1.23-1.77Z"/><path class="e" d="M142.42,64.24l-1.89-.34c.21-.76,.58-1.33,1.1-1.69s1.29-.55,2.32-.55c.93,0,1.62,.11,2.08,.33,.46,.22,.78,.5,.96,.84,.19,.34,.28,.96,.28,1.87l-.02,2.44c0,.69,.03,1.2,.1,1.53,.07,.33,.19,.68,.37,1.06h-2.06c-.05-.14-.12-.34-.2-.62-.03-.12-.06-.21-.07-.25-.36,.35-.74,.61-1.14,.78s-.84,.26-1.3,.26c-.81,0-1.45-.22-1.92-.66-.47-.44-.7-1-.7-1.67,0-.45,.11-.84,.32-1.19,.21-.35,.51-.62,.89-.8,.38-.19,.94-.35,1.66-.49,.98-.18,1.65-.35,2.03-.51v-.21c0-.4-.1-.69-.3-.86-.2-.17-.57-.26-1.12-.26-.37,0-.66,.07-.87,.22-.21,.15-.38,.4-.5,.77Zm2.79,1.69c-.27,.09-.69,.2-1.27,.32s-.96,.25-1.14,.36c-.27,.19-.41,.44-.41,.74s.11,.54,.33,.76,.5,.32,.83,.32c.38,0,.74-.12,1.08-.37,.25-.19,.42-.42,.5-.69,.05-.18,.08-.52,.08-1.02v-.42Z"/><path class="e" d="M148.4,61.84h1.16v-.59c0-.66,.07-1.16,.21-1.49,.14-.33,.4-.59,.78-.8,.38-.21,.86-.31,1.44-.31s1.18,.09,1.74,.27l-.28,1.46c-.33-.08-.65-.12-.96-.12s-.52,.07-.65,.21c-.13,.14-.2,.41-.2,.81v.56h1.56v1.64h-1.56v6.24h-2.09v-6.24h-1.16v-1.64Z"/><path class="e" d="M158.95,67.21l2.08,.35c-.27,.76-.69,1.34-1.27,1.74-.58,.4-1.3,.6-2.16,.6-1.37,0-2.39-.45-3.04-1.34-.52-.72-.78-1.62-.78-2.72,0-1.31,.34-2.33,1.02-3.07,.68-.74,1.55-1.11,2.59-1.11,1.17,0,2.1,.39,2.78,1.16,.68,.78,1,1.96,.97,3.56h-5.23c.01,.62,.18,1.1,.5,1.44,.32,.34,.72,.52,1.2,.52,.33,0,.6-.09,.82-.27s.39-.47,.5-.86Zm.12-2.11c-.01-.6-.17-1.06-.47-1.38-.3-.31-.66-.47-1.08-.47-.46,0-.83,.17-1.13,.5s-.44,.78-.44,1.35h3.12Z"/><path class="e" d="M134.4,87.97h-2.09v-7.89h1.94v1.12c.33-.53,.63-.88,.89-1.05,.27-.17,.57-.25,.9-.25,.48,0,.93,.13,1.37,.39l-.65,1.82c-.35-.23-.68-.34-.98-.34s-.54,.08-.74,.24c-.2,.16-.36,.45-.48,.87-.12,.42-.17,1.3-.17,2.64v2.44Z"/><path class="e" d="M142.89,85.46l2.08,.35c-.27,.76-.69,1.34-1.27,1.74-.58,.4-1.3,.6-2.16,.6-1.37,0-2.39-.45-3.04-1.34-.52-.72-.78-1.62-.78-2.72,0-1.31,.34-2.33,1.02-3.07,.68-.74,1.55-1.11,2.59-1.11,1.17,0,2.1,.39,2.78,1.16,.68,.78,1,1.96,.97,3.56h-5.23c.01,.62,.18,1.1,.5,1.44,.32,.34,.72,.52,1.2,.52,.33,0,.6-.09,.82-.27s.39-.47,.5-.86Zm.12-2.11c-.01-.6-.17-1.06-.47-1.38-.3-.31-.66-.47-1.08-.47-.46,0-.83,.17-1.13,.5s-.44,.78-.44,1.35h3.12Z"/><path class="e" d="M145.86,80.09h1.16v-.59c0-.66,.07-1.16,.21-1.49,.14-.33,.4-.59,.78-.8,.38-.21,.86-.31,1.44-.31s1.18,.09,1.74,.27l-.28,1.46c-.33-.08-.65-.12-.96-.12s-.52,.07-.65,.21c-.13,.14-.2,.41-.2,.81v.56h1.56v1.64h-1.56v6.24h-2.09v-6.24h-1.16v-1.64Z"/><path class="e" d="M157.03,87.97v-1.18c-.29,.42-.66,.75-1.13,1-.47,.24-.96,.36-1.48,.36s-1-.12-1.43-.35-.73-.56-.91-.98-.28-1-.28-1.74v-4.99h2.09v3.62c0,1.11,.04,1.79,.12,2.04,.08,.25,.22,.45,.42,.59,.2,.15,.46,.22,.77,.22,.36,0,.68-.1,.96-.29,.28-.2,.48-.44,.58-.73,.1-.29,.16-1,.16-2.13v-3.33h2.09v7.89h-1.94Z"/><path class="e" d="M160.94,88.49l2.38,.29c.04,.28,.13,.47,.27,.57,.2,.15,.51,.22,.94,.22,.54,0,.95-.08,1.23-.25,.18-.11,.32-.28,.42-.53,.06-.17,.1-.49,.1-.96v-1.15c-.62,.85-1.41,1.28-2.36,1.28-1.06,0-1.9-.45-2.52-1.34-.48-.71-.73-1.59-.73-2.64,0-1.32,.32-2.33,.95-3.03,.64-.7,1.43-1.05,2.37-1.05s1.78,.43,2.41,1.28v-1.11h1.95v7.08c0,.93-.08,1.63-.23,2.09s-.37,.82-.65,1.08-.65,.47-1.11,.62c-.46,.15-1.05,.22-1.76,.22-1.34,0-2.28-.23-2.84-.69-.56-.46-.84-1.04-.84-1.74,0-.07,0-.15,0-.25Zm1.86-4.63c0,.84,.16,1.45,.49,1.84,.32,.39,.72,.58,1.2,.58,.51,0,.94-.2,1.29-.6,.35-.4,.53-.99,.53-1.77s-.17-1.42-.5-1.82-.76-.59-1.28-.59-.91,.19-1.24,.58c-.32,.39-.49,.98-.49,1.78Z"/><path class="e" d="M174.99,85.46l2.08,.35c-.27,.76-.69,1.34-1.27,1.74-.58,.4-1.3,.6-2.16,.6-1.37,0-2.39-.45-3.04-1.34-.52-.72-.78-1.62-.78-2.72,0-1.31,.34-2.33,1.02-3.07,.68-.74,1.55-1.11,2.59-1.11,1.17,0,2.1,.39,2.78,1.16,.68,.78,1,1.96,.97,3.56h-5.23c.01,.62,.18,1.1,.5,1.44,.32,.34,.72,.52,1.2,.52,.33,0,.6-.09,.82-.27s.39-.47,.5-.86Zm.12-2.11c-.01-.6-.17-1.06-.47-1.38-.3-.31-.66-.47-1.08-.47-.46,0-.83,.17-1.13,.5s-.44,.78-.44,1.35h3.12Z"/></g><g><path class="d" d="M136.3,12.51v2.41h-2.06v4.6c0,.93,.02,1.47,.06,1.63,.04,.15,.13,.28,.27,.38,.14,.1,.31,.15,.51,.15,.28,0,.68-.1,1.21-.29l.26,2.34c-.7,.3-1.5,.45-2.38,.45-.54,0-1.04-.09-1.47-.27s-.76-.42-.96-.71c-.21-.29-.35-.68-.42-1.18-.06-.35-.1-1.06-.1-2.13v-4.97h-1.39v-2.41h1.39v-2.27l3.03-1.76v4.03h2.06Z"/><path class="d" d="M141.28,23.91h-3.02V12.51h2.8v1.62c.48-.77,.91-1.27,1.29-1.51,.38-.24,.82-.37,1.3-.37,.69,0,1.35,.19,1.99,.57l-.93,2.63c-.51-.33-.98-.49-1.42-.49s-.78,.12-1.07,.35c-.29,.23-.52,.65-.69,1.26-.17,.61-.25,1.88-.25,3.82v3.52Z"/><path class="d" d="M149.21,15.99l-2.74-.49c.31-1.1,.84-1.92,1.59-2.45,.75-.53,1.87-.79,3.35-.79,1.35,0,2.35,.16,3.01,.48,.66,.32,1.12,.72,1.39,1.21,.27,.49,.4,1.39,.4,2.7l-.03,3.52c0,1,.05,1.74,.14,2.22,.1,.48,.28,.99,.54,1.53h-2.99c-.08-.2-.18-.5-.29-.89-.05-.18-.09-.3-.11-.35-.52,.5-1.07,.88-1.65,1.13s-1.21,.38-1.88,.38c-1.17,0-2.1-.32-2.78-.96-.68-.64-1.01-1.44-1.01-2.42,0-.64,.15-1.22,.46-1.72s.74-.89,1.29-1.16c.55-.27,1.35-.5,2.4-.7,1.41-.26,2.39-.51,2.93-.74v-.3c0-.58-.14-.99-.43-1.24s-.83-.37-1.62-.37c-.54,0-.96,.11-1.26,.32-.3,.21-.54,.58-.73,1.11Zm4.04,2.45c-.39,.13-1,.28-1.84,.46-.84,.18-1.39,.35-1.64,.53-.39,.28-.59,.63-.59,1.06s.16,.79,.47,1.1c.32,.31,.72,.46,1.2,.46,.54,0,1.06-.18,1.56-.54,.37-.27,.61-.6,.72-1,.08-.26,.12-.75,.12-1.47v-.6Z"/><path class="d" d="M169.57,23.91h-3.02v-5.82c0-1.23-.06-2.03-.19-2.39-.13-.36-.34-.64-.63-.84-.29-.2-.64-.3-1.05-.3-.52,0-.99,.14-1.41,.43-.42,.29-.7,.67-.85,1.14-.15,.47-.23,1.35-.23,2.62v5.17h-3.02V12.51h2.8v1.68c1-1.29,2.25-1.93,3.76-1.93,.67,0,1.27,.12,1.83,.36,.55,.24,.97,.55,1.25,.92,.28,.37,.48,.79,.59,1.27,.11,.47,.17,1.15,.17,2.03v7.09Z"/><path class="d" d="M171.57,20.66l3.03-.46c.13,.59,.39,1.03,.78,1.34,.39,.3,.95,.46,1.65,.46,.78,0,1.37-.14,1.76-.43,.26-.2,.4-.47,.4-.81,0-.23-.07-.42-.21-.57-.15-.14-.49-.28-1.01-.4-2.43-.54-3.98-1.03-4.63-1.47-.9-.62-1.35-1.47-1.35-2.57,0-.99,.39-1.82,1.17-2.49,.78-.67,1.99-1.01,3.63-1.01s2.72,.25,3.48,.76c.76,.51,1.28,1.26,1.57,2.26l-2.85,.53c-.12-.44-.35-.78-.69-1.02-.34-.24-.83-.35-1.46-.35-.79,0-1.36,.11-1.71,.33-.23,.16-.34,.36-.34,.61,0,.21,.1,.4,.3,.55,.27,.2,1.21,.48,2.82,.85,1.61,.37,2.73,.81,3.37,1.34,.63,.54,.95,1.29,.95,2.25,0,1.05-.44,1.94-1.31,2.7s-2.17,1.13-3.88,1.13c-1.55,0-2.78-.31-3.69-.95-.91-.63-1.5-1.49-1.78-2.57Z"/><path class="d" d="M184.86,10.96v-2.79h3.02v2.79h-3.02Zm0,12.96V12.51h3.02v11.41h-3.02Z"/><path class="d" d="M196.21,12.51v2.41h-2.06v4.6c0,.93,.02,1.47,.06,1.63,.04,.15,.13,.28,.27,.38,.14,.1,.31,.15,.51,.15,.28,0,.68-.1,1.21-.29l.26,2.34c-.7,.3-1.5,.45-2.38,.45-.54,0-1.04-.09-1.47-.27s-.76-.42-.96-.71c-.21-.29-.35-.68-.42-1.18-.06-.35-.1-1.06-.1-2.13v-4.97h-1.39v-2.41h1.39v-2.27l3.03-1.76v4.03h2.06Z"/><path class="d" d="M198.3,10.96v-2.79h3.02v2.79h-3.02Zm0,12.96V12.51h3.02v11.41h-3.02Z"/><path class="d" d="M203.72,18.05c0-1,.25-1.97,.74-2.91,.49-.94,1.19-1.65,2.1-2.15,.91-.49,1.92-.74,3.03-.74,1.73,0,3.14,.56,4.24,1.68,1.1,1.12,1.65,2.54,1.65,4.25s-.56,3.16-1.67,4.29c-1.11,1.14-2.52,1.7-4.21,1.7-1.05,0-2.04-.24-2.99-.71-.95-.47-1.67-1.17-2.17-2.08s-.74-2.02-.74-3.34Zm3.09,.16c0,1.13,.27,2,.81,2.6s1.2,.9,1.99,.9,1.45-.3,1.98-.9c.53-.6,.8-1.48,.8-2.62s-.27-1.98-.8-2.58c-.53-.6-1.19-.9-1.98-.9s-1.45,.3-1.99,.9-.81,1.47-.81,2.6Z"/><path class="d" d="M228.23,23.91h-3.02v-5.82c0-1.23-.06-2.03-.19-2.39-.13-.36-.34-.64-.63-.84-.29-.2-.64-.3-1.05-.3-.52,0-.99,.14-1.41,.43-.42,.29-.7,.67-.85,1.14-.15,.47-.23,1.35-.23,2.62v5.17h-3.02V12.51h2.8v1.68c1-1.29,2.25-1.93,3.76-1.93,.67,0,1.27,.12,1.83,.36,.55,.24,.97,.55,1.25,.92,.28,.37,.48,.79,.59,1.27,.11,.47,.17,1.15,.17,2.03v7.09Z"/><path class="d" d="M233.55,15.99l-2.74-.49c.31-1.1,.84-1.92,1.59-2.45,.75-.53,1.87-.79,3.35-.79,1.35,0,2.35,.16,3.01,.48,.66,.32,1.12,.72,1.39,1.21,.27,.49,.4,1.39,.4,2.7l-.03,3.52c0,1,.05,1.74,.14,2.22,.1,.48,.28,.99,.54,1.53h-2.99c-.08-.2-.18-.5-.29-.89-.05-.18-.09-.3-.11-.35-.52,.5-1.07,.88-1.65,1.13s-1.21,.38-1.88,.38c-1.17,0-2.1-.32-2.78-.96-.68-.64-1.01-1.44-1.01-2.42,0-.64,.15-1.22,.46-1.72s.74-.89,1.29-1.16c.55-.27,1.35-.5,2.4-.7,1.41-.26,2.39-.51,2.93-.74v-.3c0-.58-.14-.99-.43-1.24s-.83-.37-1.62-.37c-.54,0-.96,.11-1.26,.32-.3,.21-.54,.58-.73,1.11Zm4.04,2.45c-.39,.13-1,.28-1.84,.46-.84,.18-1.39,.35-1.64,.53-.39,.28-.59,.63-.59,1.06s.16,.79,.47,1.1c.32,.31,.72,.46,1.2,.46,.54,0,1.06-.18,1.56-.54,.37-.27,.61-.6,.72-1,.08-.26,.12-.75,.12-1.47v-.6Z"/><path class="d" d="M243.53,23.91V8.17h3.02v15.75h-3.02Z"/><path class="d" d="M134.08,32.57v5.79c.97-1.14,2.14-1.71,3.49-1.71,.69,0,1.32,.13,1.88,.39s.98,.59,1.26,.99c.28,.4,.48,.85,.58,1.33,.1,.49,.16,1.24,.16,2.27v6.69h-3.02v-6.03c0-1.2-.06-1.96-.17-2.28s-.32-.58-.61-.77c-.29-.19-.65-.28-1.09-.28-.5,0-.95,.12-1.34,.37-.39,.24-.68,.61-.86,1.1-.18,.49-.27,1.22-.27,2.18v5.71h-3.02v-15.75h3.02Z"/><path class="d" d="M143.81,42.45c0-1,.25-1.97,.74-2.91,.49-.94,1.19-1.65,2.1-2.15,.91-.49,1.92-.74,3.03-.74,1.73,0,3.14,.56,4.24,1.68,1.1,1.12,1.65,2.54,1.65,4.25s-.56,3.16-1.67,4.29c-1.11,1.14-2.52,1.7-4.21,1.7-1.05,0-2.04-.24-2.99-.71-.95-.47-1.67-1.17-2.17-2.08s-.74-2.02-.74-3.34Zm3.09,.16c0,1.13,.27,2,.81,2.6s1.2,.9,1.99,.9,1.45-.3,1.98-.9c.53-.6,.8-1.48,.8-2.62s-.27-1.98-.8-2.58c-.53-.6-1.19-.9-1.98-.9s-1.45,.3-1.99,.9-.81,1.47-.81,2.6Z"/><path class="d" d="M165.45,48.31v-1.71c-.42,.61-.96,1.09-1.64,1.44-.68,.35-1.39,.53-2.14,.53s-1.45-.17-2.06-.5-1.05-.81-1.32-1.42c-.27-.61-.41-1.45-.41-2.52v-7.22h3.02v5.24c0,1.6,.06,2.59,.17,2.95,.11,.36,.31,.65,.61,.86,.29,.21,.67,.32,1.12,.32,.52,0,.98-.14,1.39-.42,.41-.28,.69-.63,.84-1.05s.23-1.44,.23-3.08v-4.81h3.02v11.41h-2.8Z"/><path class="d" d="M170.32,45.06l3.03-.46c.13,.59,.39,1.03,.78,1.34,.39,.3,.95,.46,1.65,.46,.78,0,1.37-.14,1.76-.43,.26-.2,.4-.47,.4-.81,0-.23-.07-.42-.21-.57-.15-.14-.49-.28-1.01-.4-2.43-.54-3.98-1.03-4.63-1.47-.9-.62-1.35-1.47-1.35-2.57,0-.99,.39-1.82,1.17-2.49,.78-.67,1.99-1.01,3.63-1.01s2.72,.25,3.48,.76c.76,.51,1.28,1.26,1.57,2.26l-2.85,.53c-.12-.44-.35-.78-.69-1.02-.34-.24-.83-.35-1.46-.35-.79,0-1.36,.11-1.71,.33-.23,.16-.34,.36-.34,.61,0,.21,.1,.4,.3,.55,.27,.2,1.21,.48,2.82,.85,1.61,.37,2.73,.81,3.37,1.34,.63,.54,.95,1.29,.95,2.25,0,1.05-.44,1.94-1.31,2.7s-2.17,1.13-3.88,1.13c-1.55,0-2.78-.31-3.69-.95-.91-.63-1.5-1.49-1.78-2.57Z"/><path class="d" d="M190.23,44.68l3.01,.5c-.39,1.1-1,1.94-1.83,2.52-.83,.58-1.88,.86-3.13,.86-1.98,0-3.45-.65-4.4-1.94-.75-1.04-1.13-2.35-1.13-3.93,0-1.89,.49-3.37,1.48-4.44,.99-1.07,2.24-1.61,3.75-1.61,1.7,0,3.04,.56,4.02,1.68,.98,1.12,1.45,2.84,1.41,5.15h-7.56c.02,.9,.26,1.59,.73,2.09,.47,.5,1.05,.75,1.74,.75,.47,0,.87-.13,1.19-.39s.57-.67,.73-1.25Zm.17-3.05c-.02-.87-.25-1.54-.68-1.99-.43-.45-.95-.68-1.57-.68-.66,0-1.2,.24-1.63,.72-.43,.48-.64,1.13-.63,1.96h4.51Z"/></g></g></g></svg>